<svg xmlns="http://www.w3.org/2000/svg" viewBox="0 0 2073.83 527.67" style="enable-background:new 0 0 2073.83 527.67" xml:space="preserve"><path d="m94.02 276.79-3.33 36.26h43.29l-2.96-36.26V96.62h31.81l34.04 3.7-3.7-34.41H31.86l-3.7 34.41 34.04-3.7h31.82zm129.49 36.26h37V193.92c0-8.51 22.2-35.89 26.27-35.89 8.88 0 37 9.62 37 14.43v140.59h36.62V155.08c0-11.47-48.46-28.49-63.26-28.49-8.88 0-28.12 25.53-37 38.11l.37-109.51-39.95 5.55 2.96 38.11v214.2zm232.72-186.09c-12.95 0-52.17 29.6-55.5 35.52-2.96 5.92-3.33 25.53-3.33 64.75 0 67.33 31.82 87.68 105.44 87.68 5.18 0 9.99 0 14.8-.37l7.03-35.89c-12.21 1.48-23.31 2.59-31.45 2.59-36.63 0-54.01-9.25-58.09-34.41 44.03-24.05 91.01-51.05 91.01-57.72v-32.19c.02-8.87-48.45-29.96-69.91-29.96zm35.15 59.19c0 3.33-29.6 22.57-57.34 37.74 0-34.78.74-54.01 1.48-55.86.74-1.48 12.95-10.36 14.43-10.36 5.18 0 41.44 12.21 41.44 17.02v11.46zm207.55-16.27c-41.44-20.35-52.54-29.97-52.54-45.88 0-7.4.37-11.84 1.11-13.32.74-1.11 21.83-17.76 23.31-17.76 10.73 0 58.82 11.47 86.2 18.87V74.42c-34.03-6.29-70.29-12.95-89.53-12.95-8.88 0-52.9 36.25-56.23 43.29-2.22 4.07-2.22 16.65-2.22 25.9 0 29.6 20.35 48.47 62.16 69.18 42.55 20.72 55.86 29.97 55.86 49.21 0 10.73-.37 18.5-1.11 19.98-.74 1.11-21.46 17.39-23.67 17.39-10.73 0-46.25-11.84-91.38-29.6v38.48c39.96 14.43 74.37 22.94 94.34 22.94 9.25 0 53.28-34.41 56.97-42.92 1.85-4.07 2.22-22.94 2.22-35.89 0-31.45-22.2-48.47-65.49-69.55zm134.3 143.17V128.07l-39.59 5.55 2.97 36.99v142.44zm10.42-229.02L814.2 56.46l-29.25 27.96 27.06 25.21zm65.05 149.48c0-45.88.74-63.63 1.48-65.49.74-1.48 13.32-10.36 15.17-10.36 7.03 0 34.41 5.55 63.27 13.69v-36.63c-21.83-4.07-46.25-7.77-57.35-7.77-12.95 0-52.54 29.97-55.49 35.52-2.96 5.92-3.7 31.08-3.7 71.03 0 58.45 32.19 81.39 99.15 81.39 5.55 0 10.73 0 14.8-.37l7.03-35.89c-12.21 1.48-18.13 2.59-25.53 2.59-41.44.02-58.83-10.34-58.83-47.71zm184.62-75.11c4.07 0 29.6 14.8 29.6 17.39 0 2.96-17.39 22.2-39.22 45.88 16.28 30.34 30.34 60.68 42.18 91.38h39.96c-14.8-37-29.97-67.33-48.1-99.89 23.31-22.94 42.55-44.02 42.55-48.83 0-8.88-49.58-38.11-56.97-38.11-7.4 0-31.82 31.82-43.29 48.1l.37-119.13-39.59 5.18 2.96 38.48v214.21h37V204.28c-.01-8.14 29.22-45.88 32.55-45.88zm188.32 118.39-3.33 36.26h43.29l-2.96-36.26V96.62h31.81l34.04 3.7-3.7-34.41h-161.31l-3.7 34.41 34.04-3.7h31.82zm176.55-194.51-30.98-25.83-27.6 29.59 28.47 23.62zm-10.43 230.77V128.07l-39.59 5.55 2.96 36.99v142.44zm241.59 0h36.62V155.08c0-11.47-48.1-28.49-63.63-28.49-8.51 0-21.09 12.58-35.89 29.6-18.87-14.8-47.36-29.6-60.31-29.6-8.88 0-28.12 25.53-38.11 39.59l-1.48-37.74-36.63 5.18 2.96 37v142.44h36.63V193.92c0-8.51 22.57-35.89 26.27-35.89 9.25 0 35.52 14.43 35.52 19.24v135.78h36.62V184.67c0-4.81 19.98-26.64 23.68-26.64 9.99 0 37.74 9.62 37.74 14.43v140.59zm193.87 1.48 7.03-35.89c-12.21 1.48-23.31 2.59-31.45 2.59-36.62 0-54.01-9.25-58.08-34.41 44.03-24.05 91.01-51.05 91.01-57.72v-32.19c0-8.88-48.47-29.97-69.93-29.97-12.95 0-52.16 29.6-55.49 35.52-2.96 5.92-3.33 25.53-3.33 64.75 0 67.33 31.82 87.68 105.44 87.68 5.18.01 9.99.01 14.8-.36zm-82.13-146.51c.74-1.48 12.95-10.36 14.43-10.36 5.18 0 41.44 12.21 41.44 17.02v11.47c0 3.33-29.6 22.57-57.35 37.74 0-34.78.74-54.01 1.48-55.87zm244.55 87.69c0-24.79-18.13-37.74-50.32-51.79-28.49-12.21-38.11-18.5-38.11-28.12 0-5.18.37-9.25 1.11-10.36.37-1.48 8.88-7.77 11.1-7.77 7.4 0 41.07 3.33 70.66 12.21v-35.89c-25.53-4.44-55.13-6.29-70.66-6.29-8.88 0-41.43 24.79-45.51 32.19-2.59 4.07-2.59 10.73-2.59 19.98 0 26.27 20.72 39.59 49.58 52.91 29.6 13.69 38.48 18.87 38.48 29.6 0 8.14-.37 13.32-.74 14.8-.74 1.11-9.25 7.77-11.1 7.77-6.29 0-35.52-4.07-72.52-15.91v36.62c31.44 8.14 55.86 11.1 72.14 11.1 8.88 0 42.92-25.16 46.99-32.19 1.86-4.07 1.49-20.35 1.49-28.86zM566.03 394.68c3.13-2 6.68-2.99 10.65-2.99 2.2 0 4.28.3 6.24.91 1.96.6 3.74 1.5 5.33 2.69 1.59 1.19 2.94 2.64 4.04 4.34 1.1 1.7 1.85 3.68 2.25 5.92h10.5c-.58-3.7-1.7-6.99-3.36-9.87-1.66-2.88-3.76-5.33-6.29-7.33-2.53-2.01-5.39-3.53-8.56-4.57s-6.59-1.56-10.24-1.56c-5.94 0-11.25 1.42-15.91 4.25-4.66 2.84-8.34 6.9-11.03 12.18-2.69 5.28-4.04 11.6-4.04 18.96 0 7.33 1.34 13.65 4.02 18.94 2.68 5.29 6.35 9.36 11.02 12.19 4.66 2.84 9.98 4.25 15.94 4.25 3.79 0 7.29-.56 10.5-1.68 3.21-1.12 6.06-2.71 8.56-4.76 2.5-2.05 4.55-4.5 6.16-7.33 1.6-2.84 2.68-5.95 3.24-9.33l-10.5-.03c-.42 2.2-1.19 4.14-2.3 5.84-1.11 1.69-2.46 3.12-4.05 4.29s-3.37 2.05-5.33 2.64c-1.96.59-4.03.89-6.21.89-3.93 0-7.46-.99-10.6-2.96s-5.61-4.89-7.42-8.75c-1.81-3.86-2.71-8.59-2.71-14.2 0-5.56.9-10.27 2.71-14.13 1.8-3.88 4.26-6.81 7.39-8.8zm85.81 7.19c-2.66-1.46-5.76-2.19-9.3-2.19-4.01 0-7.27.82-9.75 2.46-2.49 1.64-4.34 3.85-5.55 6.63h-.64v-25.63h-9.92v68.89h10.06v-30.68c0-2.74.53-5.07 1.6-7.01 1.06-1.94 2.53-3.41 4.41-4.42s4-1.51 6.37-1.51c3.48 0 6.19 1.05 8.14 3.15 1.95 2.1 2.93 5.04 2.93 8.83v31.65h10.06v-32.86c0-4.31-.73-7.9-2.2-10.78-1.49-2.9-3.55-5.07-6.21-6.53zm45.23-2.28c-3.03 0-5.74.8-8.12 2.4-2.39 1.61-4.05 3.8-4.99 6.58h-.54v-8.21h-9.72v51.67h10.06v-31.55c0-2.24.54-4.24 1.61-6 1.08-1.76 2.54-3.14 4.39-4.14 1.85-1 3.96-1.5 6.34-1.5 1.03 0 2.06.07 3.09.22 1.03.15 1.75.28 2.15.39v-9.62c-.49-.07-1.17-.12-2.04-.17-.85-.05-1.6-.07-2.23-.07zm45.58 3.43c-3.61-2.22-7.84-3.33-12.68-3.33s-9.07 1.11-12.68 3.33c-3.61 2.22-6.41 5.34-8.41 9.35s-2.99 8.7-2.99 14.06c0 5.34 1 10 2.99 13.99 2 3.99 4.8 7.1 8.41 9.32 3.61 2.22 7.84 3.33 12.68 3.33s9.07-1.11 12.68-3.33c3.61-2.22 6.41-5.33 8.41-9.32s2.99-8.66 2.99-13.99c0-5.36-1-10.05-2.99-14.06-1.99-4.01-4.8-7.13-8.41-9.35zm-.25 32.49c-1 2.76-2.53 4.97-4.59 6.63-2.06 1.66-4.67 2.49-7.81 2.49-3.16 0-5.78-.83-7.85-2.49-2.07-1.66-3.61-3.87-4.61-6.63-1-2.76-1.5-5.8-1.5-9.12 0-3.3.5-6.33 1.5-9.1 1-2.77 2.53-5 4.61-6.68 2.07-1.68 4.69-2.52 7.85-2.52 3.14 0 5.74.84 7.81 2.52 2.06 1.68 3.59 3.91 4.59 6.68 1 2.77 1.5 5.8 1.5 9.1 0 3.33-.5 6.37-1.5 9.12zm57.64-33.62c-2.65-1.47-5.73-2.2-9.25-2.2-3.88 0-7.09.83-9.64 2.49-2.55 1.66-4.41 3.86-5.6 6.59h-.64v-8.41h-9.65v51.67h10.06v-30.68c0-2.74.52-5.07 1.56-7.01 1.04-1.94 2.47-3.41 4.27-4.42 1.81-1.01 3.88-1.51 6.21-1.51 3.41 0 6.09 1.06 8.04 3.18 1.95 2.12 2.93 5.05 2.93 8.8v31.65h10.06v-32.86c0-4.26-.73-7.84-2.19-10.73-1.46-2.91-3.52-5.09-6.16-6.56zm21.8-1.53h10.06v51.67h-10.06zm5.07-19.98c-1.75 0-3.25.59-4.49 1.77-1.24 1.18-1.87 2.6-1.87 4.25 0 1.64.62 3.04 1.87 4.22 1.24 1.18 2.74 1.77 4.49 1.77s3.25-.59 4.49-1.77c1.24-1.18 1.87-2.59 1.87-4.25 0-1.64-.62-3.04-1.87-4.22-1.24-1.18-2.74-1.77-4.49-1.77zm32.99 29.99c2.1-1.47 4.55-2.2 7.35-2.2 3.2 0 5.77.88 7.68 2.62 1.92 1.75 3.15 3.84 3.68 6.26h9.79c-.36-3.47-1.49-6.51-3.38-9.12-1.89-2.6-4.38-4.62-7.45-6.07-3.07-1.45-6.57-2.17-10.5-2.17-4.87 0-9.1 1.13-12.68 3.4-3.59 2.27-6.37 5.41-8.34 9.43-1.97 4.03-2.96 8.66-2.96 13.91 0 5.18.96 9.78 2.89 13.79 1.93 4.02 4.69 7.16 8.29 9.44 3.6 2.28 7.9 3.41 12.9 3.41 4.08 0 7.64-.75 10.68-2.25s5.47-3.57 7.28-6.19c1.82-2.62 2.9-5.61 3.26-8.95h-9.79c-.43 1.86-1.17 3.45-2.24 4.78a10.595 10.595 0 0 1-3.94 3.04c-1.56.71-3.29 1.06-5.2 1.06-2.85 0-5.32-.75-7.42-2.25-2.1-1.5-3.72-3.62-4.86-6.36-1.14-2.73-1.72-5.99-1.72-9.75 0-3.68.58-6.87 1.75-9.57 1.2-2.71 2.83-4.79 4.93-6.26zm39.31-27.23h10.06v68.89h-10.06zm28.65-2.76c-1.75 0-3.25.59-4.49 1.77-1.24 1.18-1.87 2.6-1.87 4.25 0 1.64.62 3.04 1.87 4.22 1.24 1.18 2.74 1.77 4.49 1.77s3.25-.59 4.49-1.77c1.24-1.18 1.87-2.59 1.87-4.25 0-1.64-.62-3.04-1.87-4.22-1.24-1.18-2.74-1.77-4.49-1.77zm-5.07 19.98h10.06v51.67h-10.06zm58.36 1.53c-2.65-1.47-5.73-2.2-9.25-2.2-3.88 0-7.09.83-9.64 2.49-2.55 1.66-4.41 3.86-5.6 6.59h-.64v-8.41h-9.65v51.67h10.06v-30.68c0-2.74.52-5.07 1.56-7.01 1.04-1.94 2.47-3.41 4.27-4.42s3.88-1.51 6.21-1.51c3.41 0 6.09 1.06 8.04 3.18 1.95 2.12 2.93 5.05 2.93 8.8v31.65h10.06v-32.86c0-4.26-.73-7.84-2.19-10.73-1.47-2.91-3.52-5.09-6.16-6.56zm56.91 6.85h-.74c-.6-1.08-1.46-2.32-2.57-3.73-1.11-1.41-2.65-2.65-4.63-3.72s-4.56-1.6-7.77-1.6c-4.15 0-7.86 1.05-11.13 3.14-3.27 2.1-5.85 5.11-7.72 9.03-1.87 3.92-2.81 8.63-2.81 14.13 0 5.49.95 10.12 2.84 13.88 1.89 3.76 4.48 6.59 7.74 8.51s6.94 2.88 11.02 2.88c3.16 0 5.73-.49 7.7-1.48 1.97-.99 3.52-2.15 4.66-3.5 1.13-1.35 2-2.57 2.61-3.67h.64v10.16c0 4.04-1.24 6.98-3.73 8.83-2.49 1.85-5.64 2.78-9.45 2.78-2.78 0-5.05-.39-6.81-1.18-1.76-.79-3.15-1.73-4.17-2.84-1.02-1.11-1.83-2.16-2.44-3.15l-8.65 3.57c.92 2.11 2.31 4.05 4.17 5.82 1.86 1.77 4.27 3.19 7.22 4.27 2.95 1.08 6.48 1.61 10.58 1.61 4.39 0 8.35-.69 11.86-2.05 3.51-1.37 6.3-3.48 8.36-6.32 2.06-2.85 3.09-6.49 3.09-10.93v-52.81h-9.86v8.37zm-1.63 26.29c-1.04 2.55-2.57 4.5-4.57 5.85-2.01 1.36-4.46 2.04-7.35 2.04-2.98 0-5.49-.72-7.52-2.15-2.03-1.43-3.56-3.43-4.59-5.99-1.03-2.56-1.55-5.53-1.55-8.91 0-3.3.51-6.28 1.53-8.95 1.02-2.67 2.54-4.78 4.56-6.34 2.02-1.56 4.54-2.34 7.57-2.34 2.94 0 5.4.75 7.4 2.24 2 1.49 3.51 3.56 4.54 6.21 1.03 2.65 1.55 5.71 1.55 9.18-.01 3.55-.53 6.61-1.57 9.16zm71.9 8.56c-.61.11-1.31.17-2.12.17-1.1 0-2.11-.17-3.05-.52-.93-.35-1.69-1.01-2.27-1.98-.58-.97-.87-2.44-.87-4.39v-28.43h10.6v-8.07h-10.6v-12.38h-10.06v12.38h-7.57v8.07h7.57v30.51c0 3.12.71 5.71 2.12 7.77s3.26 3.59 5.55 4.58c2.29.99 4.76 1.46 7.4 1.41 1.61-.02 2.96-.15 4.04-.39 1.08-.23 1.91-.46 2.49-.69l-1.82-8.31c-.33.06-.8.15-1.41.27zm49.63-41.72c-2.66-1.46-5.76-2.19-9.3-2.19-4.01 0-7.27.82-9.75 2.46-2.49 1.64-4.34 3.85-5.55 6.63h-.64v-25.63h-9.92v68.89h10.06v-30.68c0-2.74.53-5.07 1.6-7.01 1.06-1.94 2.53-3.41 4.41-4.42 1.87-1.01 4-1.51 6.37-1.51 3.48 0 6.19 1.05 8.14 3.15 1.95 2.1 2.93 5.04 2.93 8.83v31.65h10.06v-32.86c0-4.31-.73-7.9-2.2-10.78-1.48-2.9-3.55-5.07-6.21-6.53zm59.26 3.81c-2.18-2.06-4.63-3.58-7.37-4.54s-5.56-1.45-8.48-1.45c-4.8 0-8.99 1.13-12.57 3.4s-6.36 5.42-8.34 9.45-2.98 8.7-2.98 13.99c0 5.36.99 10.03 2.98 14.01 1.98 3.98 4.81 7.06 8.48 9.25 3.66 2.19 8.04 3.28 13.13 3.28 3.77 0 7.13-.58 10.07-1.73 2.95-1.16 5.4-2.78 7.37-4.88a17.24 17.24 0 0 0 4.09-7.35l-9.52-1.72c-.6 1.61-1.48 2.97-2.62 4.07-1.14 1.1-2.5 1.92-4.07 2.47-1.57.55-3.31.82-5.21.82-2.94 0-5.51-.64-7.7-1.9-2.2-1.27-3.91-3.11-5.13-5.53-1.14-2.25-1.72-4.97-1.8-8.11h36.7v-3.56c0-4.69-.63-8.67-1.88-11.96-1.26-3.28-2.98-5.95-5.15-8.01zm-29.65 16.01c.12-2.22.65-4.3 1.65-6.24 1.13-2.21 2.74-4 4.84-5.38 2.1-1.38 4.56-2.07 7.38-2.07 2.6 0 4.87.59 6.81 1.78 1.94 1.19 3.45 2.81 4.52 4.86 1.08 2.05 1.61 4.4 1.61 7.05h-26.81zm84.18-38.55h-10.4v68.89h41.61v-8.95h-31.21zm76.69 19.88c-3.61-2.22-7.84-3.33-12.68-3.33s-9.07 1.11-12.68 3.33c-3.61 2.22-6.41 5.34-8.41 9.35s-2.99 8.7-2.99 14.06c0 5.34 1 10 2.99 13.99 2 3.99 4.8 7.1 8.41 9.32 3.61 2.22 7.84 3.33 12.68 3.33s9.07-1.11 12.68-3.33c3.61-2.22 6.41-5.33 8.41-9.32s2.99-8.66 2.99-13.99c0-5.36-1-10.05-2.99-14.06s-4.8-7.13-8.41-9.35zm-.25 32.49c-1 2.76-2.53 4.97-4.59 6.63-2.06 1.66-4.67 2.49-7.81 2.49-3.16 0-5.78-.83-7.85-2.49-2.07-1.66-3.61-3.87-4.61-6.63-1-2.76-1.5-5.8-1.5-9.12 0-3.3.5-6.33 1.5-9.1 1-2.77 2.53-5 4.61-6.68 2.07-1.68 4.69-2.52 7.85-2.52 3.14 0 5.74.84 7.81 2.52 2.06 1.68 3.59 3.91 4.59 6.68 1 2.77 1.5 5.8 1.5 9.1 0 3.33-.5 6.37-1.5 9.12zm57.64-33.62c-2.65-1.47-5.73-2.2-9.25-2.2-3.88 0-7.09.83-9.64 2.49-2.55 1.66-4.41 3.86-5.6 6.59h-.64v-8.41h-9.65v51.67h10.06v-30.68c0-2.74.52-5.07 1.56-7.01 1.04-1.94 2.47-3.41 4.27-4.42s3.88-1.51 6.21-1.51c3.41 0 6.09 1.06 8.04 3.18 1.95 2.12 2.93 5.05 2.93 8.8v31.65h10.06v-32.86c0-4.26-.73-7.84-2.19-10.73-1.46-2.91-3.51-5.09-6.16-6.56zm56.92 6.85h-.74c-.6-1.08-1.46-2.32-2.57-3.73-1.11-1.41-2.65-2.65-4.63-3.72-1.97-1.06-4.56-1.6-7.77-1.6-4.15 0-7.86 1.05-11.13 3.14-3.27 2.1-5.85 5.11-7.72 9.03-1.87 3.92-2.81 8.63-2.81 14.13 0 5.49.95 10.12 2.84 13.88 1.89 3.76 4.48 6.59 7.74 8.51s6.94 2.88 11.02 2.88c3.16 0 5.73-.49 7.7-1.48 1.97-.99 3.52-2.15 4.66-3.5 1.13-1.35 2-2.57 2.61-3.67h.64v10.16c0 4.04-1.24 6.98-3.73 8.83-2.49 1.85-5.64 2.78-9.45 2.78-2.78 0-5.05-.39-6.81-1.18-1.76-.79-3.15-1.73-4.17-2.84-1.02-1.11-1.83-2.16-2.44-3.15l-8.65 3.57c.92 2.11 2.31 4.05 4.17 5.82 1.86 1.77 4.27 3.19 7.22 4.27 2.95 1.08 6.48 1.61 10.58 1.61 4.39 0 8.35-.69 11.86-2.05 3.51-1.37 6.3-3.48 8.36-6.32 2.06-2.85 3.09-6.49 3.09-10.93v-52.81h-9.86v8.37zm-1.64 26.29c-1.04 2.55-2.57 4.5-4.57 5.85-2.01 1.36-4.46 2.04-7.35 2.04-2.98 0-5.49-.72-7.52-2.15-2.03-1.43-3.56-3.43-4.59-5.99-1.03-2.56-1.55-5.53-1.55-8.91 0-3.3.51-6.28 1.53-8.95 1.02-2.67 2.54-4.78 4.56-6.34 2.02-1.56 4.54-2.34 7.57-2.34 2.94 0 5.4.75 7.4 2.24 2 1.49 3.51 3.56 4.54 6.21 1.03 2.65 1.55 5.71 1.55 9.18 0 3.55-.52 6.61-1.57 9.16zm69.1-40.35c3.13-2 6.68-2.99 10.65-2.99 2.2 0 4.28.3 6.24.91 1.96.6 3.74 1.5 5.33 2.69 1.59 1.19 2.94 2.64 4.04 4.34 1.1 1.7 1.85 3.68 2.25 5.92h10.5c-.58-3.7-1.7-6.99-3.36-9.87-1.66-2.88-3.76-5.33-6.29-7.33-2.53-2.01-5.39-3.53-8.56-4.57-3.17-1.04-6.59-1.56-10.24-1.56-5.94 0-11.25 1.42-15.91 4.25-4.66 2.84-8.34 6.9-11.03 12.18-2.69 5.28-4.04 11.6-4.04 18.96 0 7.33 1.34 13.65 4.02 18.94 2.68 5.29 6.35 9.36 11.02 12.19 4.66 2.84 9.98 4.25 15.94 4.25 3.79 0 7.29-.56 10.5-1.68 3.21-1.12 6.06-2.71 8.56-4.76 2.5-2.05 4.55-4.5 6.16-7.33 1.6-2.84 2.68-5.95 3.24-9.33l-10.5-.03c-.42 2.2-1.19 4.14-2.3 5.84a16.565 16.565 0 0 1-4.05 4.29 17.369 17.369 0 0 1-5.33 2.64c-1.96.59-4.03.89-6.21.89-3.93 0-7.46-.99-10.6-2.96s-5.61-4.89-7.42-8.75c-1.81-3.86-2.71-8.59-2.71-14.2 0-5.56.9-10.27 2.71-14.13 1.79-3.88 4.26-6.81 7.39-8.8zm85.09 8.34c-3.61-2.22-7.84-3.33-12.68-3.33s-9.07 1.11-12.68 3.33c-3.61 2.22-6.41 5.34-8.41 9.35s-2.99 8.7-2.99 14.06c0 5.34 1 10 2.99 13.99 2 3.99 4.8 7.1 8.41 9.32 3.61 2.22 7.84 3.33 12.68 3.33s9.07-1.11 12.68-3.33c3.61-2.22 6.41-5.33 8.41-9.32s2.99-8.66 2.99-13.99c0-5.36-1-10.05-2.99-14.06-2-4.01-4.8-7.13-8.41-9.35zm-.26 32.49c-1 2.76-2.53 4.97-4.59 6.63-2.06 1.66-4.67 2.49-7.81 2.49-3.16 0-5.78-.83-7.85-2.49-2.07-1.66-3.61-3.87-4.61-6.63-1-2.76-1.5-5.8-1.5-9.12 0-3.3.5-6.33 1.5-9.1 1-2.77 2.53-5 4.61-6.68 2.07-1.68 4.69-2.52 7.85-2.52 3.14 0 5.74.84 7.81 2.52 2.06 1.68 3.59 3.91 4.59 6.68 1 2.77 1.5 5.8 1.5 9.1 0 3.33-.5 6.37-1.5 9.12zm41.4 4.61h-.54l-13.09-39.76h-10.8l18.77 51.67h10.77l18.73-51.67h-10.79zm33.3-39.76h10.06v51.67h-10.06zm5.08-19.98c-1.75 0-3.25.59-4.49 1.77-1.24 1.18-1.87 2.6-1.87 4.25 0 1.64.62 3.04 1.87 4.22 1.24 1.18 2.74 1.77 4.49 1.77s3.25-.59 4.49-1.77c1.24-1.18 1.87-2.59 1.87-4.25 0-1.64-.62-3.04-1.87-4.22-1.25-1.18-2.74-1.77-4.49-1.77zm53.38 28.36h-.61c-.6-1.08-1.45-2.32-2.54-3.73-1.09-1.41-2.61-2.65-4.58-3.72-1.96-1.06-4.55-1.6-7.75-1.6-4.15 0-7.86 1.05-11.13 3.16-3.28 2.11-5.85 5.15-7.72 9.12-1.87 3.97-2.81 8.74-2.81 14.33 0 5.58.92 10.37 2.78 14.35 1.85 3.98 4.41 7.04 7.67 9.19 3.26 2.14 6.98 3.21 11.15 3.21 3.14 0 5.7-.53 7.67-1.58 1.97-1.06 3.53-2.29 4.66-3.7 1.13-1.41 2-2.67 2.61-3.77h.84v8.04h9.82v-68.89h-10.06v25.59zm-1.4 27.01c-1.04 2.74-2.57 4.87-4.57 6.41-2.01 1.54-4.46 2.3-7.35 2.3-2.98 0-5.49-.8-7.52-2.41-2.03-1.6-3.56-3.79-4.59-6.54-1.03-2.76-1.55-5.86-1.55-9.32 0-3.41.51-6.47 1.53-9.18s2.54-4.85 4.56-6.43c2.02-1.57 4.54-2.35 7.57-2.35 2.94 0 5.4.75 7.4 2.25s3.51 3.6 4.54 6.29c1.03 2.69 1.55 5.83 1.55 9.42 0 3.64-.52 6.82-1.57 9.56zm69.9-41.07c3.13-2 6.68-2.99 10.65-2.99 2.2 0 4.28.3 6.24.91 1.96.6 3.74 1.5 5.33 2.69 1.59 1.19 2.94 2.64 4.04 4.34 1.1 1.7 1.85 3.68 2.25 5.92h10.5c-.58-3.7-1.7-6.99-3.36-9.87-1.66-2.88-3.76-5.33-6.29-7.33-2.53-2.01-5.39-3.53-8.56-4.57s-6.59-1.56-10.24-1.56c-5.94 0-11.25 1.42-15.91 4.25-4.66 2.84-8.34 6.9-11.03 12.18-2.69 5.28-4.04 11.6-4.04 18.96 0 7.33 1.34 13.65 4.02 18.94 2.68 5.29 6.35 9.36 11.02 12.19 4.66 2.84 9.98 4.25 15.94 4.25 3.79 0 7.29-.56 10.5-1.68 3.21-1.12 6.06-2.71 8.56-4.76 2.5-2.05 4.55-4.5 6.16-7.33 1.6-2.84 2.68-5.95 3.24-9.33l-10.5-.03c-.43 2.2-1.19 4.14-2.3 5.84-1.11 1.69-2.46 3.12-4.05 4.29s-3.37 2.05-5.33 2.64-4.03.89-6.21.89c-3.93 0-7.46-.99-10.6-2.96-3.14-1.97-5.61-4.89-7.42-8.75-1.81-3.86-2.71-8.59-2.71-14.2 0-5.56.9-10.27 2.71-14.13 1.8-3.88 4.27-6.81 7.39-8.8zm74.03 4.91c-3.03 0-5.73.8-8.12 2.4-2.39 1.61-4.05 3.8-4.99 6.58h-.54v-8.21h-9.72v51.67h10.06v-31.55c0-2.24.54-4.24 1.61-6 1.08-1.76 2.54-3.14 4.39-4.14 1.85-1 3.96-1.5 6.34-1.5 1.03 0 2.06.07 3.09.22 1.03.15 1.75.28 2.15.39v-9.62c-.49-.07-1.17-.12-2.03-.17-.87-.05-1.62-.07-2.24-.07zm18.09-19.21c-1.75 0-3.25.59-4.49 1.77-1.24 1.18-1.87 2.6-1.87 4.25 0 1.64.62 3.04 1.87 4.22 1.24 1.18 2.74 1.77 4.49 1.77s3.25-.59 4.49-1.77c1.24-1.18 1.87-2.59 1.87-4.25 0-1.64-.62-3.04-1.87-4.22-1.24-1.18-2.74-1.77-4.49-1.77zm-5.07 19.98h10.06v51.67h-10.06zm49.17 22.74-8.21-1.88c-2.85-.67-4.91-1.53-6.19-2.59-1.28-1.05-1.92-2.44-1.92-4.17 0-2 .95-3.63 2.86-4.89 1.91-1.27 4.28-1.9 7.13-1.9 2.09 0 3.82.34 5.22 1.01 1.39.67 2.49 1.54 3.31 2.59.82 1.05 1.42 2.16 1.8 3.33l9.12-1.62c-1.03-4.04-3.15-7.26-6.36-9.67-3.21-2.41-7.6-3.62-13.19-3.62-3.88 0-7.32.64-10.33 1.93s-5.36 3.08-7.06 5.36c-1.7 2.29-2.56 4.96-2.56 8.01 0 3.68 1.15 6.72 3.45 9.12 2.3 2.4 5.86 4.15 10.68 5.25l8.74 1.92c2.47.56 4.3 1.39 5.5 2.49 1.2 1.1 1.8 2.46 1.8 4.07 0 2-.99 3.68-2.96 5.06-1.97 1.38-4.61 2.07-7.9 2.07-3.03 0-5.48-.64-7.37-1.93-1.88-1.29-3.13-3.2-3.73-5.74l-9.72 1.48c.83 4.58 3.07 8.1 6.73 10.58 3.65 2.48 8.37 3.72 14.16 3.72 4.17 0 7.84-.68 11.02-2.05 3.17-1.37 5.65-3.26 7.44-5.67 1.78-2.41 2.67-5.16 2.67-8.26 0-3.65-1.17-6.62-3.5-8.91-2.33-2.3-5.87-3.99-10.63-5.09zm25.17-22.74h10.06v51.67h-10.06zm5.07-19.98c-1.75 0-3.25.59-4.49 1.77-1.24 1.18-1.87 2.6-1.87 4.25 0 1.64.62 3.04 1.87 4.22 1.24 1.18 2.74 1.77 4.49 1.77s3.25-.59 4.49-1.77c1.24-1.18 1.87-2.59 1.87-4.25 0-1.64-.62-3.04-1.87-4.22-1.24-1.18-2.73-1.77-4.49-1.77zm44.1 42.72-8.21-1.88c-2.85-.67-4.91-1.53-6.19-2.59-1.28-1.05-1.92-2.44-1.92-4.17 0-2 .95-3.63 2.86-4.89s4.28-1.9 7.13-1.9c2.09 0 3.82.34 5.22 1.01 1.39.67 2.49 1.54 3.31 2.59.82 1.05 1.42 2.16 1.8 3.33l9.12-1.62c-1.03-4.04-3.15-7.26-6.36-9.67-3.21-2.41-7.6-3.62-13.19-3.62-3.88 0-7.32.64-10.33 1.93s-5.36 3.08-7.06 5.36-2.56 4.96-2.56 8.01c0 3.68 1.15 6.72 3.45 9.12 2.3 2.4 5.86 4.15 10.68 5.25l8.74 1.92c2.47.56 4.3 1.39 5.5 2.49 1.2 1.1 1.8 2.46 1.8 4.07 0 2-.99 3.68-2.96 5.06-1.97 1.38-4.61 2.07-7.9 2.07-3.03 0-5.48-.64-7.37-1.93s-3.13-3.2-3.73-5.74l-9.72 1.48c.83 4.58 3.07 8.1 6.73 10.58 3.65 2.48 8.37 3.72 14.16 3.72 4.17 0 7.84-.68 11.02-2.05 3.17-1.37 5.65-3.26 7.43-5.67 1.78-2.41 2.67-5.16 2.67-8.26 0-3.65-1.17-6.62-3.5-8.91-2.32-2.3-5.86-3.99-10.62-5.09zM85.17 420.25h419.65v6.73H85.17z" style="fill:#fff"/></svg>